<svg width="61" height="40" viewBox="0 0 61 40" fill="none" xmlns="http://www.w3.org/2000/svg">
<path d="M14.7486 0.553976C6.29119 0.517046 0.585227 6.05682 0.622159 13.7386C0.585227 20.8295 5.53409 25.9446 12.2372 25.9446C16.392 25.9446 20.0852 23.9318 21.7656 20.608H22.0241C22.0057 28.1051 19.402 32.6662 14.4716 32.6662C11.5724 32.6662 9.4858 31.0781 8.87642 28.3267H0.991477C1.73011 34.6974 6.90057 39.517 14.4716 39.517C23.8338 39.517 29.8352 31.946 29.8537 19.1122C29.8352 5.28125 22.5227 0.572442 14.7486 0.553976ZM14.804 6.83238C18.4787 6.83238 21.1932 9.82386 21.2301 13.4801C21.1932 17.1548 18.3864 20.1463 14.7301 20.1463C11.0369 20.1463 8.34091 17.2656 8.37784 13.517C8.34091 9.73153 11.0923 6.83238 14.804 6.83238ZM44.9167 0.553976C36.4593 0.517046 30.7534 6.05682 30.7903 13.7386C30.7534 20.8295 35.7022 25.9446 42.4053 25.9446C46.5602 25.9446 50.2534 23.9318 51.9338 20.608H52.1923C52.1738 28.1051 49.5701 32.6662 44.6397 32.6662C41.7406 32.6662 39.6539 31.0781 39.0445 28.3267H31.1596C31.8982 34.6974 37.0687 39.517 44.6397 39.517C54.0019 39.517 60.0034 31.946 60.0218 19.1122C60.0034 5.28125 52.6909 0.572442 44.9167 0.553976ZM44.9721 6.83238C48.6468 6.83238 51.3613 9.82386 51.3982 13.4801C51.3613 17.1548 48.5545 20.1463 44.8982 20.1463C41.2051 20.1463 38.509 17.2656 38.546 13.517C38.509 9.73153 41.2605 6.83238 44.9721 6.83238Z" fill="black"/>
</svg>
