<svg width="95" height="159" viewBox="0 0 95 159" fill="none" xmlns="http://www.w3.org/2000/svg">
<path d="M0 0H87C91.4183 0 95 3.58172 95 8V39H0V0Z" fill="white"/>
<path d="M21.2549 26.2727H22.0702V25.1641C24.1583 25.0199 25.3316 23.7869 25.3316 22.2358C25.3316 20.3267 23.5219 19.7102 22.4679 19.4318L22.0702 19.3224V15.7876C23.1242 15.892 23.8898 16.4588 23.9992 17.3636H25.1924C25.1427 15.9119 23.8699 14.8082 22.0702 14.6889V13.5455H21.2549V14.7038C19.5496 14.8778 18.2719 15.9616 18.2719 17.5227C18.2719 18.8949 19.2662 19.7102 20.8571 20.1676L21.2549 20.282V24.0455C20.2108 23.9361 19.3557 23.3991 19.2662 22.375H17.9935C18.1078 23.9411 19.301 25.0348 21.2549 25.1641V26.2727ZM22.0702 24.0455V20.5156L22.11 20.5256C23.1838 20.8239 24.1384 21.2017 24.1384 22.2159C24.1384 23.2152 23.2733 23.9112 22.0702 24.0455ZM21.2549 19.1037C20.4992 18.8899 19.4651 18.4723 19.4651 17.4631C19.4651 16.603 20.1611 15.9467 21.2549 15.8026V19.1037ZM34.1368 14.8182H32.9038L30.3584 16.5085V17.7614L32.8442 16.1108H32.9038V25H34.1368V14.8182ZM37.0585 25.0795C37.5507 25.0795 37.9534 24.6768 37.9534 24.1847C37.9534 23.6925 37.5507 23.2898 37.0585 23.2898C36.5663 23.2898 36.1636 23.6925 36.1636 24.1847C36.1636 24.6768 36.5663 25.0795 37.0585 25.0795ZM42.9048 14.6591C40.8366 14.6392 39.5042 16.1903 39.5042 18.0795C39.5042 20.0483 40.9559 21.4602 42.7059 21.4602C43.7599 21.4602 44.6548 20.9432 45.2116 20.108H45.2911C45.2911 22.6136 44.3167 24.0455 42.7457 24.0455C41.6718 24.0455 41.0155 23.3693 40.7968 22.4347H39.5837C39.8224 24.0455 41.0354 25.1392 42.7457 25.1392C45.0326 25.1392 46.4445 23.1108 46.4445 19.4915C46.4445 15.733 44.5752 14.679 42.9048 14.6591ZM42.9048 15.7528C44.1775 15.7528 45.1121 16.8466 45.1121 18.0597C45.1121 19.2727 44.1178 20.3665 42.865 20.3665C41.6121 20.3665 40.6974 19.3523 40.6974 18.0795C40.6974 16.7869 41.6519 15.7528 42.9048 15.7528ZM51.5003 25.1392C53.5585 25.1641 54.9009 23.6129 54.9009 21.7188C54.9009 19.75 53.4442 18.3381 51.6992 18.3381C50.6501 18.3381 49.7503 18.8501 49.1935 19.6903H49.1139C49.1189 17.1896 50.0834 15.7528 51.6594 15.7528C52.7332 15.7528 53.3795 16.429 53.6082 17.3636H54.8213C54.5727 15.7628 53.3696 14.6591 51.6594 14.6591C49.3675 14.6591 47.9605 16.6875 47.9605 20.3068C47.9605 24.0703 49.8298 25.1193 51.5003 25.1392ZM51.5003 24.0455C50.2226 24.0455 49.2879 22.9567 49.2929 21.7386C49.2979 20.5206 50.2773 19.4318 51.5401 19.4318C52.7879 19.4318 53.7077 20.456 53.7077 21.7188C53.7077 23.0114 52.7482 24.0455 51.5003 24.0455Z" fill="#757575"/>
<path d="M82.5 22.5L77.75 17.75L75.25 20.25L71.5 16.5" stroke="#F5450D" stroke-linecap="round" stroke-linejoin="round"/>
<path d="M79.5 22.5H82.5V19.5" stroke="#F5450D" stroke-linecap="round" stroke-linejoin="round"/>
<rect width="95" height="39" transform="translate(0 40)" fill="white"/>
<path d="M20.6396 66.2727H21.455V65.1641C23.543 65.0199 24.7163 63.7869 24.7163 62.2358C24.7163 60.3267 22.9067 59.7102 21.8527 59.4318L21.455 59.3224V55.7876C22.5089 55.892 23.2746 56.4588 23.3839 57.3636H24.5771C24.5274 55.9119 23.2547 54.8082 21.455 54.6889V53.5455H20.6396V54.7038C18.9344 54.8778 17.6567 55.9616 17.6567 57.5227C17.6567 58.8949 18.651 59.7102 20.2419 60.1676L20.6396 60.282V64.0455C19.5956 63.9361 18.7405 63.3991 18.651 62.375H17.3783C17.4926 63.9411 18.6858 65.0348 20.6396 65.1641V66.2727ZM21.455 64.0455V60.5156L21.4947 60.5256C22.5686 60.8239 23.5232 61.2017 23.5232 62.2159C23.5232 63.2152 22.6581 63.9112 21.455 64.0455ZM20.6396 59.1037C19.8839 58.8899 18.8499 58.4723 18.8499 57.4631C18.8499 56.603 19.5459 55.9467 20.6396 55.8026V59.1037ZM33.263 65.1392C35.5102 65.1392 36.8028 63.2351 36.8028 59.9091C36.8028 56.608 35.4903 54.679 33.263 54.679C31.0358 54.679 29.7233 56.608 29.7233 59.9091C29.7233 63.2351 31.0159 65.1392 33.263 65.1392ZM33.263 64.0455C31.7815 64.0455 30.9165 62.5589 30.9165 59.9091C30.9165 57.2642 31.7915 55.7528 33.263 55.7528C34.7346 55.7528 35.6096 57.2642 35.6096 59.9091C35.6096 62.5589 34.7446 64.0455 33.263 64.0455ZM38.9316 65.0795C39.4237 65.0795 39.8264 64.6768 39.8264 64.1847C39.8264 63.6925 39.4237 63.2898 38.9316 63.2898C38.4394 63.2898 38.0367 63.6925 38.0367 64.1847C38.0367 64.6768 38.4394 65.0795 38.9316 65.0795ZM44.5976 65.1392C46.8447 65.1392 48.1374 63.2351 48.1374 59.9091C48.1374 56.608 46.8249 54.679 44.5976 54.679C42.3703 54.679 41.0578 56.608 41.0578 59.9091C41.0578 63.2351 42.3504 65.1392 44.5976 65.1392ZM44.5976 64.0455C43.116 64.0455 42.251 62.5589 42.251 59.9091C42.251 57.2642 43.126 55.7528 44.5976 55.7528C46.0692 55.7528 46.9442 57.2642 46.9442 59.9091C46.9442 62.5589 46.0791 64.0455 44.5976 64.0455ZM49.7913 65H51.0839L55.618 55.9716V54.8182H49.0953V55.9119H54.3453V55.9915L49.7913 65Z" fill="#757575"/>
<path d="M82.5 59L77.75 63.75L75.25 61.25L71.5 65" stroke="#07D635" stroke-linecap="round" stroke-linejoin="round"/>
<path d="M79.5 59H82.5V62" stroke="#07D635" stroke-linecap="round" stroke-linejoin="round"/>
<rect width="95" height="39" transform="translate(0 80)" fill="white"/>
<path d="M21.7539 106.273H22.5692V105.164C24.6573 105.02 25.8306 103.787 25.8306 102.236C25.8306 100.327 24.0209 99.7102 22.967 99.4318L22.5692 99.3224V95.7876C23.6232 95.892 24.3888 96.4588 24.4982 97.3636H25.6914C25.6417 95.9119 24.3689 94.8082 22.5692 94.6889V93.5455H21.7539V94.7038C20.0486 94.8778 18.7709 95.9616 18.7709 97.5227C18.7709 98.8949 19.7653 99.7102 21.3562 100.168L21.7539 100.282V104.045C20.7099 103.936 19.8547 103.399 19.7653 102.375H18.4925C18.6069 103.941 19.8001 105.035 21.7539 105.164V106.273ZM22.5692 104.045V100.516L22.609 100.526C23.6829 100.824 24.6374 101.202 24.6374 102.216C24.6374 103.215 23.7724 103.911 22.5692 104.045ZM21.7539 99.1037C20.9982 98.8899 19.9641 98.4723 19.9641 97.4631C19.9641 96.603 20.6601 95.9467 21.7539 95.8026V99.1037ZM31.0563 105H37.4796V103.906H32.7466V103.827L35.0336 101.381C36.7836 99.5064 37.3006 98.6314 37.3006 97.5028C37.3006 95.9318 36.0279 94.679 34.2381 94.679C32.4533 94.679 31.0961 95.892 31.0961 97.6818H32.2693C32.2693 96.5234 33.0201 95.7528 34.1983 95.7528C35.302 95.7528 36.1472 96.429 36.1472 97.5028C36.1472 98.4425 35.5953 99.1385 34.4171 100.426L31.0563 104.105V105ZM40.1278 105.08C40.62 105.08 41.0227 104.677 41.0227 104.185C41.0227 103.692 40.62 103.29 40.1278 103.29C39.6357 103.29 39.233 103.692 39.233 104.185C39.233 104.677 39.6357 105.08 40.1278 105.08ZM45.1911 94.8182H43.9581L41.4127 96.5085V97.7614L43.8984 96.1108H43.9581V105H45.1911V94.8182ZM51.0211 105.139C52.9601 105.139 54.3819 103.707 54.3819 101.759C54.3819 99.7848 53.0098 98.3381 51.1405 98.3381C50.4544 98.3381 49.7882 98.5817 49.3706 98.9148H49.3109L49.6689 95.9119H53.9246V94.8182H48.6348L48.0183 99.8295L49.1717 99.9688C49.5943 99.6655 50.3152 99.4467 50.9416 99.4517C52.2392 99.4616 53.1888 100.446 53.1888 101.778C53.1888 103.086 52.274 104.045 51.0211 104.045C49.9771 104.045 49.1469 103.374 49.0524 102.455H47.8592C47.9338 104.006 49.2712 105.139 51.0211 105.139Z" fill="#757575"/>
<path d="M82.5 102.5L77.75 97.75L75.25 100.25L71.5 96.5" stroke="#F5450D" stroke-linecap="round" stroke-linejoin="round"/>
<path d="M79.5 102.5H82.5V99.5" stroke="#F5450D" stroke-linecap="round" stroke-linejoin="round"/>
<path d="M0 120H95V151C95 155.418 91.4183 159 87 159H0V120Z" fill="white"/>
<path d="M19.956 146.273H20.7714V145.164C22.8594 145.02 24.0327 143.787 24.0327 142.236C24.0327 140.327 22.2231 139.71 21.1691 139.432L20.7714 139.322V135.788C21.8254 135.892 22.591 136.459 22.7004 137.364H23.8935C23.8438 135.912 22.5711 134.808 20.7714 134.689V133.545H19.956V134.704C18.2508 134.878 16.9731 135.962 16.9731 137.523C16.9731 138.895 17.9674 139.71 19.5583 140.168L19.956 140.282V144.045C18.912 143.936 18.0569 143.399 17.9674 142.375H16.6947C16.809 143.941 18.0022 145.035 19.956 145.164V146.273ZM20.7714 144.045V140.516L20.8112 140.526C21.885 140.824 22.8396 141.202 22.8396 142.216C22.8396 143.215 21.9745 143.911 20.7714 144.045ZM19.956 139.104C19.2004 138.89 18.1663 138.472 18.1663 137.463C18.1663 136.603 18.8623 135.947 19.956 135.803V139.104ZM29.0198 142.912H33.8124V145H34.9857V142.912H36.3777V141.818H34.9857V134.818H33.4942L29.0198 141.898V142.912ZM33.8124 141.818H30.3522V141.739L33.7329 136.389H33.8124V141.818ZM38.3573 145.08C38.8495 145.08 39.2522 144.677 39.2522 144.185C39.2522 143.692 38.8495 143.29 38.3573 143.29C37.8651 143.29 37.4625 143.692 37.4625 144.185C37.4625 144.677 37.8651 145.08 38.3573 145.08ZM44.2036 134.659C42.1354 134.639 40.803 136.19 40.803 138.08C40.803 140.048 42.2547 141.46 44.0047 141.46C45.0587 141.46 45.9536 140.943 46.5104 140.108H46.5899C46.5899 142.614 45.6155 144.045 44.0445 144.045C42.9706 144.045 42.3144 143.369 42.0956 142.435H40.8826C41.1212 144.045 42.3343 145.139 44.0445 145.139C46.3314 145.139 47.7434 143.111 47.7434 139.491C47.7434 135.733 45.874 134.679 44.2036 134.659ZM44.2036 135.753C45.4763 135.753 46.411 136.847 46.411 138.06C46.411 139.273 45.4166 140.366 44.1638 140.366C42.911 140.366 41.9962 139.352 41.9962 138.08C41.9962 136.787 42.9507 135.753 44.2036 135.753ZM52.7991 145.139C54.8574 145.164 56.1997 143.613 56.1997 141.719C56.1997 139.75 54.743 138.338 52.998 138.338C51.949 138.338 51.0491 138.85 50.4923 139.69H50.4127C50.4177 137.19 51.3822 135.753 52.9582 135.753C54.0321 135.753 54.6784 136.429 54.9071 137.364H56.1201C55.8716 135.763 54.6684 134.659 52.9582 134.659C50.6663 134.659 49.2593 136.688 49.2593 140.307C49.2593 144.07 51.1287 145.119 52.7991 145.139ZM52.7991 144.045C51.5214 144.045 50.5868 142.957 50.5917 141.739C50.5967 140.521 51.5761 139.432 52.8389 139.432C54.0868 139.432 55.0065 140.456 55.0065 141.719C55.0065 143.011 54.047 144.045 52.7991 144.045Z" fill="#757575"/>
<path d="M82.5 142.5L77.75 137.75L75.25 140.25L71.5 136.5" stroke="#F5450D" stroke-linecap="round" stroke-linejoin="round"/>
<path d="M79.5 142.5H82.5V139.5" stroke="#F5450D" stroke-linecap="round" stroke-linejoin="round"/>
</svg>
