<svg width="101" height="159" viewBox="0 0 101 159" fill="none" xmlns="http://www.w3.org/2000/svg">
<path d="M0 8C0 3.58172 3.58172 0 8 0H101V39H0V8Z" fill="white"/>
<path d="M13.2784 25H17.7386C20.4432 25 21.6648 23.6534 21.6648 21.8693C21.6648 20.0682 20.4034 19.0511 19.25 18.9886V18.875C20.3182 18.6023 21.2102 17.875 21.2102 16.4205C21.2102 14.6989 20.017 13.3636 17.5398 13.3636H13.2784V25ZM15.0341 23.4943V19.767H17.6307C19.0398 19.767 19.9205 20.6761 19.9205 21.7841C19.9205 22.7614 19.2557 23.4943 17.5682 23.4943H15.0341ZM15.0341 18.3977V14.858H17.4318C18.8239 14.858 19.4886 15.5909 19.4886 16.5568C19.4886 17.6818 18.5682 18.3977 17.3864 18.3977H15.0341ZM23.2908 25H24.9897V16.2727H23.2908V25ZM24.1488 14.9261C24.734 14.9261 25.2226 14.4716 25.2226 13.9148C25.2226 13.358 24.734 12.8977 24.1488 12.8977C23.5578 12.8977 23.0749 13.358 23.0749 13.9148C23.0749 14.4716 23.5578 14.9261 24.1488 14.9261ZM31.029 16.2727H29.2393V14.1818H27.5404V16.2727H26.262V17.6364H27.5404V22.7898C27.5347 24.375 28.7449 25.142 30.0859 25.1136C30.6256 25.108 30.9893 25.0057 31.1881 24.9318L30.8813 23.5284C30.7677 23.5511 30.5574 23.6023 30.2847 23.6023C29.7336 23.6023 29.2393 23.4205 29.2393 22.4375V17.6364H31.029V16.2727ZM36.1707 25.1761C38.2332 25.1761 39.5684 23.9375 39.7559 22.2386H38.1025C37.8866 23.1818 37.1536 23.7386 36.182 23.7386C34.7445 23.7386 33.8184 22.5398 33.8184 20.6364C33.8184 18.767 34.7616 17.5909 36.182 17.5909C37.2616 17.5909 37.9207 18.2727 38.1025 19.0909H39.7559C39.5741 17.3295 38.1366 16.1591 36.1536 16.1591C33.6934 16.1591 32.1025 18.0114 32.1025 20.6761C32.1025 23.3068 33.6366 25.1761 36.1707 25.1761ZM44.9288 25.1761C47.389 25.1761 48.997 23.375 48.997 20.6761C48.997 17.9602 47.389 16.1591 44.9288 16.1591C42.4686 16.1591 40.8606 17.9602 40.8606 20.6761C40.8606 23.375 42.4686 25.1761 44.9288 25.1761ZM44.9345 23.75C43.3265 23.75 42.5765 22.3466 42.5765 20.6705C42.5765 19 43.3265 17.5795 44.9345 17.5795C46.5311 17.5795 47.2811 19 47.2811 20.6705C47.2811 22.3466 46.5311 23.75 44.9345 23.75ZM50.5733 25H52.2722V16.2727H50.5733V25ZM51.4313 14.9261C52.0165 14.9261 52.5051 14.4716 52.5051 13.9148C52.5051 13.358 52.0165 12.8977 51.4313 12.8977C50.8403 12.8977 50.3574 13.358 50.3574 13.9148C50.3574 14.4716 50.8403 14.9261 51.4313 14.9261ZM55.9365 19.8182C55.9365 18.4261 56.7888 17.6307 57.9706 17.6307C59.124 17.6307 59.8229 18.3864 59.8229 19.6534V25H61.5218V19.4489C61.5218 17.2898 60.3343 16.1591 58.5502 16.1591C57.2377 16.1591 56.3797 16.767 55.9763 17.6932H55.8684V16.2727H54.2377V25H55.9365V19.8182Z" fill="#B5B0AC"/>
<rect width="101" height="39" transform="translate(0 40)" fill="white"/>
<path d="M13.2784 65H20.642V63.4886H15.0341V59.9261H20.1932V58.4205H15.0341V54.875H20.5739V53.3636H13.2784V65ZM26.5365 56.2727H24.7468V54.1818H23.0479V56.2727H21.7695V57.6364H23.0479V62.7898C23.0422 64.375 24.2524 65.142 25.5934 65.1136C26.1331 65.108 26.4968 65.0057 26.6956 64.9318L26.3888 63.5284C26.2752 63.5511 26.0649 63.6023 25.7922 63.6023C25.2411 63.6023 24.7468 63.4205 24.7468 62.4375V57.6364H26.5365V56.2727ZM29.9822 59.8182C29.9822 58.4261 30.8628 57.6307 32.0731 57.6307C33.2435 57.6307 33.9424 58.375 33.9424 59.6534V65H35.6412V59.4489C35.6412 57.2727 34.4481 56.1591 32.6526 56.1591C31.2947 56.1591 30.4765 56.75 30.0674 57.6932H29.9594V53.3636H28.2833V65H29.9822V59.8182ZM41.3497 65.1761C43.2531 65.1761 44.5997 64.2386 44.986 62.8182L43.3781 62.5284C43.0713 63.3523 42.3326 63.7727 41.3667 63.7727C39.9122 63.7727 38.9349 62.8295 38.8894 61.1477H45.094V60.5455C45.094 57.392 43.2076 56.1591 41.2303 56.1591C38.7985 56.1591 37.1963 58.0114 37.1963 60.6932C37.1963 63.4034 38.7758 65.1761 41.3497 65.1761ZM38.8951 59.875C38.9633 58.6364 39.861 57.5625 41.2417 57.5625C42.5599 57.5625 43.4235 58.5398 43.4292 59.875H38.8951ZM46.6589 65H48.3578V59.6705C48.3578 58.5284 49.2385 57.7045 50.443 57.7045C50.7953 57.7045 51.193 57.767 51.3294 57.8068V56.1818C51.1589 56.1591 50.8237 56.142 50.6078 56.142C49.5851 56.142 48.7101 56.7216 48.3919 57.6591H48.301V56.2727H46.6589V65ZM55.9284 65.1761C57.8318 65.1761 59.1784 64.2386 59.5648 62.8182L57.9568 62.5284C57.65 63.3523 56.9114 63.7727 55.9455 63.7727C54.4909 63.7727 53.5136 62.8295 53.4682 61.1477H59.6727V60.5455C59.6727 57.392 57.7864 56.1591 55.8091 56.1591C53.3773 56.1591 51.775 58.0114 51.775 60.6932C51.775 63.4034 53.3545 65.1761 55.9284 65.1761ZM53.4739 59.875C53.542 58.6364 54.4398 57.5625 55.8205 57.5625C57.1386 57.5625 58.0023 58.5398 58.008 59.875H53.4739ZM66.7661 61.3807C66.7718 62.8636 65.6695 63.5682 64.7149 63.5682C63.6638 63.5682 62.9365 62.8068 62.9365 61.6193V56.2727H61.2377V61.8239C61.2377 63.9886 62.4252 65.1136 64.1013 65.1136C65.4138 65.1136 66.3059 64.4205 66.7093 63.4886H66.8002V65H68.4706V56.2727H66.7661V61.3807ZM70.4333 65H72.1322V59.6193C72.1322 58.4432 72.956 57.625 73.9219 57.625C74.8651 57.625 75.5185 58.25 75.5185 59.1989V65H77.2117V59.4375C77.2117 58.3864 77.8537 57.625 78.9617 57.625C79.8594 57.625 80.5981 58.125 80.5981 59.3068V65H82.2969V59.1477C82.2969 57.1534 81.1833 56.1591 79.6037 56.1591C78.3481 56.1591 77.4049 56.7614 76.9844 57.6932H76.8935C76.5128 56.7386 75.7117 56.1591 74.5469 56.1591C73.3935 56.1591 72.5356 56.733 72.1719 57.6932H72.064V56.2727H70.4333V65Z" fill="#B5B0AC"/>
<rect width="101" height="39" transform="translate(0 80)" fill="white"/>
<path d="M13.2784 105H15.0341V100.597H17.4205C17.4602 100.597 17.4943 100.597 17.5341 100.597L19.8977 105H21.8977L19.3182 100.29C20.7443 99.7614 21.4545 98.5739 21.4545 97.0114C21.4545 94.8693 20.125 93.3636 17.4261 93.3636H13.2784V105ZM15.0341 99.0852V94.8693H17.2386C18.9716 94.8693 19.6875 95.6932 19.6875 97.0114C19.6875 98.3239 18.9716 99.0852 17.2614 99.0852H15.0341ZM23.1345 105H24.8334V96.2727H23.1345V105ZM23.9925 94.9261C24.5777 94.9261 25.0664 94.4716 25.0664 93.9148C25.0664 93.358 24.5777 92.8977 23.9925 92.8977C23.4016 92.8977 22.9186 93.358 22.9186 93.9148C22.9186 94.4716 23.4016 94.9261 23.9925 94.9261ZM26.7989 108.273H28.4978V103.642H28.6001C28.9069 104.199 29.5319 105.17 31.1228 105.17C33.2364 105.17 34.7705 103.477 34.7705 100.653C34.7705 97.8239 33.2137 96.1591 31.1057 96.1591C29.4864 96.1591 28.9012 97.1477 28.6001 97.6875H28.458V96.2727H26.7989V108.273ZM28.4637 100.636C28.4637 98.8125 29.2591 97.6023 30.7421 97.6023C32.2819 97.6023 33.0546 98.9034 33.0546 100.636C33.0546 102.386 32.2591 103.722 30.7421 103.722C29.2819 103.722 28.4637 102.472 28.4637 100.636ZM36.3539 108.273H38.0528V103.642H38.1551C38.4619 104.199 39.0869 105.17 40.6778 105.17C42.7914 105.17 44.3255 103.477 44.3255 100.653C44.3255 97.8239 42.7687 96.1591 40.6607 96.1591C39.0414 96.1591 38.4562 97.1477 38.1551 97.6875H38.013V96.2727H36.3539V108.273ZM38.0187 100.636C38.0187 98.8125 38.8141 97.6023 40.2971 97.6023C41.8369 97.6023 42.6096 98.9034 42.6096 100.636C42.6096 102.386 41.8141 103.722 40.2971 103.722C38.8369 103.722 38.0187 102.472 38.0187 100.636ZM47.6078 93.3636H45.9089V105H47.6078V93.3636ZM53.3347 105.176C55.2381 105.176 56.5847 104.239 56.971 102.818L55.3631 102.528C55.0563 103.352 54.3176 103.773 53.3517 103.773C51.8972 103.773 50.9199 102.83 50.8744 101.148H57.079V100.545C57.079 97.392 55.1926 96.1591 53.2153 96.1591C50.7835 96.1591 49.1813 98.0114 49.1813 100.693C49.1813 103.403 50.7608 105.176 53.3347 105.176ZM50.8801 99.875C50.9483 98.6364 51.846 97.5625 53.2267 97.5625C54.5449 97.5625 55.4085 98.5398 55.4142 99.875H50.8801Z" fill="#B5B0AC"/>
<path d="M0 120H101V159H8C3.58172 159 0 155.418 0 151V120Z" fill="white"/>
<path d="M19.625 136.42H21.3182C21.267 134.557 19.6193 133.205 17.2557 133.205C14.9205 133.205 13.1307 134.54 13.1307 136.545C13.1307 138.165 14.2898 139.114 16.1591 139.619L17.5341 139.994C18.7784 140.324 19.7386 140.733 19.7386 141.767C19.7386 142.903 18.6534 143.653 17.1591 143.653C15.8068 143.653 14.6818 143.051 14.5795 141.784H12.8182C12.9318 143.892 14.5625 145.193 17.1705 145.193C19.9034 145.193 21.4773 143.756 21.4773 141.784C21.4773 139.688 19.608 138.875 18.1307 138.511L16.9943 138.216C16.0852 137.983 14.875 137.557 14.8807 136.443C14.8807 135.455 15.7841 134.722 17.2159 134.722C18.5511 134.722 19.5 135.347 19.625 136.42ZM27.1928 136.273H25.403V134.182H23.7041V136.273H22.4257V137.636H23.7041V142.79C23.6985 144.375 24.9087 145.142 26.2496 145.114C26.7894 145.108 27.153 145.006 27.3519 144.932L27.0451 143.528C26.9314 143.551 26.7212 143.602 26.4485 143.602C25.8973 143.602 25.403 143.42 25.403 142.438V137.636H27.1928V136.273ZM32.4197 145.176C34.3231 145.176 35.6697 144.239 36.056 142.818L34.4481 142.528C34.1412 143.352 33.4026 143.773 32.4367 143.773C30.9822 143.773 30.0049 142.83 29.9594 141.148H36.164V140.545C36.164 137.392 34.2776 136.159 32.3003 136.159C29.8685 136.159 28.2662 138.011 28.2662 140.693C28.2662 143.403 29.8458 145.176 32.4197 145.176ZM29.9651 139.875C30.0333 138.636 30.931 137.562 32.3117 137.562C33.6299 137.562 34.4935 138.54 34.4992 139.875H29.9651ZM39.4278 133.364H37.7289V145H39.4278V133.364ZM43.0922 133.364H41.3933V145H43.0922V133.364ZM47.5974 145.193C49.0406 145.193 49.8531 144.46 50.177 143.807H50.2452V145H51.9043V139.205C51.9043 136.665 49.9043 136.159 48.5179 136.159C46.9384 136.159 45.4838 136.795 44.9156 138.386L46.5122 138.75C46.7622 138.131 47.3986 137.534 48.5406 137.534C49.6372 137.534 50.1997 138.108 50.1997 139.097V139.136C50.1997 139.756 49.5634 139.744 47.9952 139.926C46.3418 140.119 44.6486 140.551 44.6486 142.534C44.6486 144.25 45.9384 145.193 47.5974 145.193ZM47.9668 143.83C47.0065 143.83 46.3134 143.398 46.3134 142.557C46.3134 141.648 47.1202 141.324 48.1031 141.193C48.6543 141.119 49.9611 140.972 50.2054 140.727V141.852C50.2054 142.886 49.3815 143.83 47.9668 143.83ZM53.847 145H55.5459V139.67C55.5459 138.528 56.4266 137.705 57.6311 137.705C57.9834 137.705 58.3811 137.767 58.5175 137.807V136.182C58.347 136.159 58.0118 136.142 57.7959 136.142C56.7732 136.142 55.8982 136.722 55.58 137.659H55.4891V136.273H53.847V145Z" fill="#B5B0AC"/>
</svg>
