<svg width="151" height="48" viewBox="0 0 151 48" fill="none" xmlns="http://www.w3.org/2000/svg">
<rect x="1" y="1" width="149" height="46" rx="3" fill="#FAF8F7"/>
<path d="M17.2352 29V19.2H23.6332V20.642H19.0272V23.33H23.2132V24.73H19.0272V27.558H23.6332V29H17.2352ZM28.157 29.168C27.541 29.168 26.9996 29.07 26.533 28.874C26.0663 28.6687 25.693 28.3887 25.413 28.034C25.133 27.6793 24.965 27.2687 24.909 26.802H26.715C26.771 27.0727 26.9203 27.306 27.163 27.502C27.415 27.6887 27.737 27.782 28.129 27.782C28.521 27.782 28.8056 27.7027 28.983 27.544C29.1696 27.3853 29.263 27.2033 29.263 26.998C29.263 26.6993 29.1323 26.4987 28.871 26.396C28.6096 26.284 28.2456 26.1767 27.779 26.074C27.4803 26.0087 27.177 25.9293 26.869 25.836C26.561 25.7427 26.2763 25.626 26.015 25.486C25.763 25.3367 25.5576 25.15 25.399 24.926C25.2403 24.6927 25.161 24.408 25.161 24.072C25.161 23.456 25.4036 22.938 25.889 22.518C26.3836 22.098 27.0743 21.888 27.961 21.888C28.7823 21.888 29.4356 22.0793 29.921 22.462C30.4156 22.8447 30.7096 23.372 30.803 24.044H29.109C29.0063 23.5307 28.619 23.274 27.947 23.274C27.611 23.274 27.3496 23.3393 27.163 23.47C26.9856 23.6007 26.897 23.764 26.897 23.96C26.897 24.1653 27.0323 24.3287 27.303 24.45C27.5736 24.5713 27.933 24.6833 28.381 24.786C28.8663 24.898 29.3096 25.024 29.711 25.164C30.1216 25.2947 30.4483 25.4953 30.691 25.766C30.9336 26.0273 31.055 26.4053 31.055 26.9C31.0643 27.3293 30.9523 27.7167 30.719 28.062C30.4856 28.4073 30.1496 28.678 29.711 28.874C29.2723 29.07 28.7543 29.168 28.157 29.168ZM36.0444 29.168C35.3351 29.168 34.7098 29.014 34.1684 28.706C33.6271 28.398 33.1978 27.9687 32.8804 27.418C32.5724 26.8673 32.4184 26.2373 32.4184 25.528C32.4184 24.8187 32.5724 24.1887 32.8804 23.638C33.1978 23.0873 33.6271 22.658 34.1684 22.35C34.7098 22.042 35.3351 21.888 36.0444 21.888C36.9311 21.888 37.6778 22.1213 38.2844 22.588C38.8911 23.0453 39.2784 23.68 39.4464 24.492H37.5564C37.4631 24.156 37.2764 23.8947 36.9964 23.708C36.7258 23.512 36.4038 23.414 36.0304 23.414C35.5358 23.414 35.1158 23.6007 34.7704 23.974C34.4251 24.3473 34.2524 24.8653 34.2524 25.528C34.2524 26.1907 34.4251 26.7087 34.7704 27.082C35.1158 27.4553 35.5358 27.642 36.0304 27.642C36.4038 27.642 36.7258 27.5487 36.9964 27.362C37.2764 27.1753 37.4631 26.9093 37.5564 26.564H39.4464C39.2784 27.348 38.8911 27.978 38.2844 28.454C37.6778 28.93 36.9311 29.168 36.0444 29.168ZM44.369 29.168C43.697 29.168 43.0903 29.014 42.549 28.706C42.017 28.398 41.5923 27.9733 41.275 27.432C40.967 26.8813 40.813 26.2467 40.813 25.528C40.813 24.8093 40.9716 24.1793 41.289 23.638C41.6063 23.0873 42.031 22.658 42.563 22.35C43.1043 22.042 43.711 21.888 44.383 21.888C45.0456 21.888 45.643 22.042 46.175 22.35C46.7163 22.658 47.141 23.0873 47.449 23.638C47.7663 24.1793 47.925 24.8093 47.925 25.528C47.925 26.2467 47.7663 26.8813 47.449 27.432C47.141 27.9733 46.7163 28.398 46.175 28.706C45.6336 29.014 45.0316 29.168 44.369 29.168ZM44.369 27.614C44.8356 27.614 45.2416 27.4413 45.587 27.096C45.9323 26.7413 46.105 26.2187 46.105 25.528C46.105 24.8373 45.9323 24.3193 45.587 23.974C45.2416 23.6193 44.8403 23.442 44.383 23.442C43.907 23.442 43.4963 23.6193 43.151 23.974C42.815 24.3193 42.647 24.8373 42.647 25.528C42.647 26.2187 42.815 26.7413 43.151 27.096C43.4963 27.4413 43.9023 27.614 44.369 27.614ZM52.0297 26.928C51.6937 26.928 51.381 26.8907 51.0917 26.816L50.5737 27.334C50.7324 27.418 50.947 27.488 51.2177 27.544C51.4884 27.6 51.927 27.656 52.5337 27.712C53.4577 27.796 54.1297 28.0153 54.5497 28.37C54.9697 28.7247 55.1797 29.2147 55.1797 29.84C55.1797 30.2507 55.0677 30.638 54.8437 31.002C54.6197 31.3753 54.2744 31.674 53.8077 31.898C53.341 32.1313 52.7437 32.248 52.0157 32.248C51.0264 32.248 50.2284 32.0613 49.6217 31.688C49.015 31.324 48.7117 30.7733 48.7117 30.036C48.7117 29.4107 49.015 28.8693 49.6217 28.412C49.435 28.328 49.2717 28.2393 49.1317 28.146C49.001 28.0527 48.8844 27.9547 48.7817 27.852V27.53L49.9997 26.242C49.4584 25.766 49.1877 25.1547 49.1877 24.408C49.1877 23.9413 49.2997 23.5167 49.5237 23.134C49.757 22.7513 50.0837 22.448 50.5037 22.224C50.9237 22 51.4324 21.888 52.0297 21.888C52.4217 21.888 52.7857 21.944 53.1217 22.056H55.7537V23.148L54.5637 23.232C54.7504 23.5867 54.8437 23.9787 54.8437 24.408C54.8437 24.8747 54.7317 25.2993 54.5077 25.682C54.2837 26.0647 53.957 26.368 53.5277 26.592C53.1077 26.816 52.6084 26.928 52.0297 26.928ZM52.0297 25.556C52.3937 25.556 52.6924 25.458 52.9257 25.262C53.1684 25.066 53.2897 24.786 53.2897 24.422C53.2897 24.058 53.1684 23.778 52.9257 23.582C52.6924 23.386 52.3937 23.288 52.0297 23.288C51.647 23.288 51.339 23.386 51.1057 23.582C50.8724 23.778 50.7557 24.058 50.7557 24.422C50.7557 24.786 50.8724 25.066 51.1057 25.262C51.339 25.458 51.647 25.556 52.0297 25.556ZM50.3497 29.854C50.3497 30.1993 50.5084 30.456 50.8257 30.624C51.1524 30.8013 51.549 30.89 52.0157 30.89C52.4637 30.89 52.8277 30.7967 53.1077 30.61C53.3877 30.4327 53.5277 30.19 53.5277 29.882C53.5277 29.63 53.4344 29.42 53.2477 29.252C53.0704 29.084 52.711 28.9813 52.1697 28.944C51.787 28.916 51.4324 28.874 51.1057 28.818C50.835 28.9673 50.639 29.1307 50.5177 29.308C50.4057 29.4853 50.3497 29.6673 50.3497 29.854ZM60.161 29.168C59.461 29.168 58.8403 29.0187 58.299 28.72C57.7576 28.4213 57.333 28.0013 57.025 27.46C56.717 26.9187 56.563 26.2933 56.563 25.584C56.563 24.8653 56.7123 24.226 57.011 23.666C57.319 23.106 57.739 22.672 58.271 22.364C58.8123 22.0467 59.447 21.888 60.175 21.888C60.8563 21.888 61.4583 22.0373 61.981 22.336C62.5036 22.6347 62.9096 23.0453 63.199 23.568C63.4976 24.0813 63.647 24.6553 63.647 25.29C63.647 25.3927 63.6423 25.5 63.633 25.612C63.633 25.724 63.6283 25.8407 63.619 25.962H58.341C58.3783 26.5033 58.565 26.928 58.901 27.236C59.2463 27.544 59.6616 27.698 60.147 27.698C60.511 27.698 60.8143 27.6187 61.057 27.46C61.309 27.292 61.4956 27.0773 61.617 26.816H63.437C63.3063 27.2547 63.087 27.656 62.779 28.02C62.4803 28.3747 62.107 28.6547 61.659 28.86C61.2203 29.0653 60.721 29.168 60.161 29.168ZM60.175 23.344C59.7363 23.344 59.349 23.47 59.013 23.722C58.677 23.9647 58.4623 24.338 58.369 24.842H61.827C61.799 24.3847 61.631 24.0207 61.323 23.75C61.015 23.4793 60.6323 23.344 60.175 23.344ZM65.1541 29V22.056H66.7501L66.9181 23.358C67.1701 22.91 67.5108 22.5553 67.9401 22.294C68.3788 22.0233 68.8921 21.888 69.4801 21.888V23.778H68.9761C68.5841 23.778 68.2341 23.8387 67.9261 23.96C67.6181 24.0813 67.3755 24.2913 67.1981 24.59C67.0301 24.8887 66.9461 25.304 66.9461 25.836V29H65.1541ZM77.4149 29.168C76.7149 29.168 76.0942 29.0187 75.5529 28.72C75.0115 28.4213 74.5869 28.0013 74.2789 27.46C73.9709 26.9187 73.8169 26.2933 73.8169 25.584C73.8169 24.8653 73.9662 24.226 74.2649 23.666C74.5729 23.106 74.9929 22.672 75.5249 22.364C76.0662 22.0467 76.7009 21.888 77.4289 21.888C78.1102 21.888 78.7122 22.0373 79.2349 22.336C79.7575 22.6347 80.1635 23.0453 80.4529 23.568C80.7515 24.0813 80.9009 24.6553 80.9009 25.29C80.9009 25.3927 80.8962 25.5 80.8869 25.612C80.8869 25.724 80.8822 25.8407 80.8729 25.962H75.5949C75.6322 26.5033 75.8189 26.928 76.1549 27.236C76.5002 27.544 76.9155 27.698 77.4009 27.698C77.7649 27.698 78.0682 27.6187 78.3109 27.46C78.5629 27.292 78.7495 27.0773 78.8709 26.816H80.6909C80.5602 27.2547 80.3409 27.656 80.0329 28.02C79.7342 28.3747 79.3609 28.6547 78.9129 28.86C78.4742 29.0653 77.9749 29.168 77.4149 29.168ZM77.4289 23.344C76.9902 23.344 76.6029 23.47 76.2669 23.722C75.9309 23.9647 75.7162 24.338 75.6229 24.842H79.0809C79.0529 24.3847 78.8849 24.0207 78.5769 23.75C78.2689 23.4793 77.8862 23.344 77.4289 23.344ZM85.278 29.168C84.662 29.168 84.1207 29.07 83.654 28.874C83.1874 28.6687 82.814 28.3887 82.534 28.034C82.254 27.6793 82.086 27.2687 82.03 26.802H83.836C83.892 27.0727 84.0414 27.306 84.284 27.502C84.536 27.6887 84.858 27.782 85.25 27.782C85.642 27.782 85.9267 27.7027 86.104 27.544C86.2907 27.3853 86.384 27.2033 86.384 26.998C86.384 26.6993 86.2534 26.4987 85.992 26.396C85.7307 26.284 85.3667 26.1767 84.9 26.074C84.6014 26.0087 84.298 25.9293 83.99 25.836C83.682 25.7427 83.3974 25.626 83.136 25.486C82.884 25.3367 82.6787 25.15 82.52 24.926C82.3614 24.6927 82.282 24.408 82.282 24.072C82.282 23.456 82.5247 22.938 83.01 22.518C83.5047 22.098 84.1954 21.888 85.082 21.888C85.9034 21.888 86.5567 22.0793 87.042 22.462C87.5367 22.8447 87.8307 23.372 87.924 24.044H86.23C86.1274 23.5307 85.74 23.274 85.068 23.274C84.732 23.274 84.4707 23.3393 84.284 23.47C84.1067 23.6007 84.018 23.764 84.018 23.96C84.018 24.1653 84.1534 24.3287 84.424 24.45C84.6947 24.5713 85.054 24.6833 85.502 24.786C85.9874 24.898 86.4307 25.024 86.832 25.164C87.2427 25.2947 87.5694 25.4953 87.812 25.766C88.0547 26.0273 88.176 26.4053 88.176 26.9C88.1854 27.3293 88.0734 27.7167 87.84 28.062C87.6067 28.4073 87.2707 28.678 86.832 28.874C86.3934 29.07 85.8754 29.168 85.278 29.168ZM92.6388 29C91.9108 29 91.3274 28.8227 90.8888 28.468C90.4501 28.1133 90.2308 27.4833 90.2308 26.578V23.554H89.0408V22.056H90.2308L90.4408 20.194H92.0228V22.056H93.8988V23.554H92.0228V26.592C92.0228 26.928 92.0928 27.1613 92.2328 27.292C92.3821 27.4133 92.6341 27.474 92.9888 27.474H93.8568V29H92.6388ZM98.6336 29.168C97.9336 29.168 97.3129 29.0187 96.7716 28.72C96.2303 28.4213 95.8056 28.0013 95.4976 27.46C95.1896 26.9187 95.0356 26.2933 95.0356 25.584C95.0356 24.8653 95.1849 24.226 95.4836 23.666C95.7916 23.106 96.2116 22.672 96.7436 22.364C97.2849 22.0467 97.9196 21.888 98.6476 21.888C99.3289 21.888 99.9309 22.0373 100.454 22.336C100.976 22.6347 101.382 23.0453 101.672 23.568C101.97 24.0813 102.12 24.6553 102.12 25.29C102.12 25.3927 102.115 25.5 102.106 25.612C102.106 25.724 102.101 25.8407 102.092 25.962H96.8136C96.8509 26.5033 97.0376 26.928 97.3736 27.236C97.7189 27.544 98.1343 27.698 98.6196 27.698C98.9836 27.698 99.2869 27.6187 99.5296 27.46C99.7816 27.292 99.9683 27.0773 100.09 26.816H101.91C101.779 27.2547 101.56 27.656 101.252 28.02C100.953 28.3747 100.58 28.6547 100.132 28.86C99.6929 29.0653 99.1936 29.168 98.6336 29.168ZM98.6476 23.344C98.2089 23.344 97.8216 23.47 97.4856 23.722C97.1496 23.9647 96.9349 24.338 96.8416 24.842H100.3C100.272 24.3847 100.104 24.0207 99.7956 23.75C99.4876 23.4793 99.1049 23.344 98.6476 23.344Z" fill="#201E1C"/>
<path d="M116 24H130" stroke="#F7931A" stroke-width="2" stroke-linecap="round" stroke-linejoin="round"/>
<path d="M123 17L130 24L123 31" stroke="#F7931A" stroke-width="2" stroke-linecap="round" stroke-linejoin="round"/>
<rect x="1" y="1" width="149" height="46" rx="3" stroke="#F7931A" stroke-width="2"/>
</svg>
